<?xml version="1.0" standalone="no"?>
<!DOCTYPE svg PUBLIC "-//W3C//DTD SVG 20010904//EN"
 "http://www.w3.org/TR/2001/REC-SVG-20010904/DTD/svg10.dtd">
<svg version="1.0" xmlns="http://www.w3.org/2000/svg"
 width="103.000000pt" height="103.000000pt" viewBox="0 0 103.000000 103.000000"
 preserveAspectRatio="xMidYMid meet">
<metadata>
Created by potrace 1.14, written by Peter Selinger 2001-2017
</metadata>
<g transform="translate(0.000000,103.000000) scale(0.100000,-0.100000)"
fill="#000000" stroke="none">
<path d="M381 709 c-124 -24 -204 -146 -180 -276 24 -128 144 -206 279 -181
30 5 70 5 100 0 172 -31 310 105 279 275 -24 127 -145 206 -276 181 -42 -7
-84 -6 -143 7 -8 1 -35 -1 -59 -6z m43 -118 c-36 -68 -36 -154 0 -222 l25 -49
-31 0 c-76 0 -148 78 -148 160 0 82 71 159 147 160 l32 0 -25 -49z m286 28
c75 -42 102 -143 59 -219 -25 -43 -83 -80 -127 -80 l-31 0 25 49 c20 37 26 64
26 111 0 47 -6 74 -26 111 l-25 49 31 0 c16 0 47 -10 68 -21z m-150 -44 c45
-48 37 -162 -15 -205 -39 -32 -90 77 -71 153 6 26 43 77 55 77 4 0 18 -11 31
-25z"/>
</g>
</svg>
